<?xml version="1.0" encoding="UTF-8" standalone="no"?><!DOCTYPE svg PUBLIC "-//W3C//DTD SVG 1.1//EN" "http://www.w3.org/Graphics/SVG/1.1/DTD/svg11.dtd"><svg width="100%" height="100%" viewBox="0 0 2000 2000" version="1.1" xmlns="http://www.w3.org/2000/svg" xmlns:xlink="http://www.w3.org/1999/xlink" xml:space="preserve" xmlns:serif="http://www.serif.com/" style="fill-rule:evenodd;clip-rule:evenodd;stroke-linejoin:round;stroke-miterlimit:2;"><rect id="Prancheta3" x="0" y="0" width="2000" height="2000" style="fill:none;"/><clipPath id="_clip1"><rect id="Prancheta31" serif:id="Prancheta3" x="0" y="0" width="2000" height="2000"/></clipPath><g clip-path="url(#_clip1)"><rect x="0" y="-10.81" width="2000" height="2000" style="fill:#cfcfcf;fill-opacity:0.96;"/><g><path d="M1428.137,1008.904l-0,344.602c0,34.368 -5.523,55.541 -16.57,63.519c-11.047,7.978 -32.527,11.967 -64.44,11.967l-78.011,0c-50.658,0 -98.452,-23.49 -129.398,-63.597l-460.925,-597.372l-3.682,-18.411l0,679.38l-138.085,0c0,0 -3.441,-625.632 0,-762.231c0.512,-20.316 8.986,-43.248 20.646,-57.364c11.661,-14.115 28.803,-24.929 49.317,-27.329l84.939,0c55.578,0 108.016,25.767 141.974,69.765l395.681,512.652c-29.538,11.71 -78.538,-9.917 -82.971,-10.077c-11.252,-0.406 13.322,6.79 74.854,-0.44l-67.985,21.943c0,0 96.783,74.959 100.24,78.985c4.683,5.455 49.661,42.455 49.661,42.455l-14.032,-151.72c53.875,-13.396 100.736,-109.183 138.786,-136.728Z" style="fill:#8959b9;"/><path d="M1194.265,591.072c-44.278,-40.328 -173.215,-79.603 -173.215,-79.603l74.561,-10.313c0,0 206.636,-8.958 317.364,158.369c2.547,4.268 26.081,50.539 26.85,54.421c0,0 4.327,9.176 6.49,13.764c29.033,97.451 22.906,195.023 -15.503,277.324c-28.77,61.649 -73.212,118.483 -139.279,151.052c-5.456,2.69 -11.059,5.214 -16.812,7.561c-29.992,12.237 -70.616,15.932 -106.255,13.629c-72.52,-4.687 -133.237,-47.819 -121.462,-47.392c155.297,5.635 211.915,-65.823 227.265,-84.368c28.27,-34.156 52.425,-94.676 65.803,-138.162c18.664,-60.668 5.74,-97.881 6.181,-99.691c-0.634,-4.377 -1.461,-8.753 -2.463,-13.121c-24.006,-104.612 -148.921,-204.714 -149.526,-203.472Z" style="fill:#8959b9;"/><path d="M1194.922,717.925c1.439,0.791 34.021,111.951 35,112.384c25.973,11.483 111.793,32.44 111.793,32.44c0,0 -108.527,29.574 -115.054,32.634c-25.424,95.793 -26.596,100.248 -26.596,100.248l-37.453,-102.115l-106.732,-33.506l112.765,-31.209c0,0 22.357,-105.389 26.277,-110.876Z" style="fill:#8959b9;fill-opacity:0.96;"/></g></g></svg>