<svg width="20" height="20" viewBox="0 0 20 20" fill="none" xmlns="http://www.w3.org/2000/svg">
<path fill-rule="evenodd" clip-rule="evenodd" d="M9.71732 0.0220658C4.88304 0.355185 1.02373 4.36886 0.869359 9.21127C0.80436 11.1694 1.33248 13.0625 2.38871 14.6874L0 19.4973C0.0731237 19.4973 5.90677 17.9211 5.90677 17.9211C7.27987 18.6605 8.82359 19.0423 10.3917 19.0423C15.6403 19.0423 19.914 14.7687 19.914 9.52002C19.914 4.27136 15.2747 -0.359802 9.71732 0.0220658ZM10.3836 17.3849C8.99421 17.3849 7.62111 17.0111 6.42676 16.3124C6.29676 16.2393 6.12614 16.1174 6.12614 16.1174C6.12614 16.1174 5.85802 16.2068 5.78489 16.223L3.17682 16.938L4.28992 14.4843C3.03057 12.9325 2.41308 11.015 2.53495 9.01628C2.77057 5.11635 5.92302 1.93953 9.82295 1.67141C14.4054 1.35454 18.2403 4.99448 18.2403 9.51189C18.2403 14.0293 14.7141 17.3767 10.3754 17.3767L10.3836 17.3849Z" fill="#1E1E1E"/>
<path fill-rule="evenodd" clip-rule="evenodd" d="M14.048 10.9494C13.6498 10.7138 13.1298 10.4457 12.6586 10.6407C12.3011 10.787 12.0655 11.3557 11.838 11.6401C11.7161 11.7863 11.578 11.8107 11.3911 11.7376C10.0343 11.2013 9.00242 10.2913 8.25493 9.04823C8.12494 8.85324 8.14931 8.69886 8.30368 8.52012C8.53118 8.252 8.81555 7.95138 8.87242 7.59388C8.93742 7.23639 8.7668 6.8139 8.62055 6.49703C8.43368 6.09079 8.22243 5.5058 7.81619 5.2783C7.44245 5.06705 6.94683 5.18893 6.61371 5.45705C6.03685 5.92829 5.7606 6.65953 5.76873 7.39076C5.76873 7.60201 5.7931 7.80513 5.84185 8.00825C6.24809 9.67384 7.3937 11.0794 8.7343 12.0951C9.88803 12.9725 11.7974 14.1588 13.3167 13.8744C14.0561 13.7363 14.7792 13.2813 15.0717 12.5663C15.1611 12.355 15.2017 12.1194 15.1529 11.9001C15.0554 11.4451 14.4298 11.1688 14.0561 10.9494H14.048Z" fill="#1E1E1E"/>
</svg>
